<svg id="visual" viewBox="0 0 675 900" width="675" height="900" xmlns="http://www.w3.org/2000/svg"
     xmlns:xlink="http://www.w3.org/1999/xlink" version="1.1">
    <path d="M0 136L10.2 125.5C20.3 115 40.7 94 61.2 85C81.7 76 102.3 79 122.8 88C143.3 97 163.7 112 184 115C204.3 118 224.7 109 245.2 100C265.7 91 286.3 82 306.8 82C327.3 82 347.7 91 368.2 98.5C388.7 106 409.3 112 429.8 107.5C450.3 103 470.7 88 491 77.5C511.3 67 531.7 61 552.2 62.5C572.7 64 593.3 73 613.8 86.5C634.3 100 654.7 118 664.8 127L675 136L675 0L664.8 0C654.7 0 634.3 0 613.8 0C593.3 0 572.7 0 552.2 0C531.7 0 511.3 0 491 0C470.7 0 450.3 0 429.8 0C409.3 0 388.7 0 368.2 0C347.7 0 327.3 0 306.8 0C286.3 0 265.7 0 245.2 0C224.7 0 204.3 0 184 0C163.7 0 143.3 0 122.8 0C102.3 0 81.7 0 61.2 0C40.7 0 20.3 0 10.2 0L0 0Z"
          fill="#8de9ff">
        <animate dur="30s" repeatCount="indefinite" attributeName="d"
                 values="M0 136L10.2 125.5C20.3 115 40.7 94 61.2 85C81.7 76 102.3 79 122.8 88C143.3 97 163.7 112 184 115C204.3 118 224.7 109 245.2 100C265.7 91 286.3 82 306.8 82C327.3 82 347.7 91 368.2 98.5C388.7 106 409.3 112 429.8 107.5C450.3 103 470.7 88 491 77.5C511.3 67 531.7 61 552.2 62.5C572.7 64 593.3 73 613.8 86.5C634.3 100 654.7 118 664.8 127L675 136L675 0L664.8 0C654.7 0 634.3 0 613.8 0C593.3 0 572.7 0 552.2 0C531.7 0 511.3 0 491 0C470.7 0 450.3 0 429.8 0C409.3 0 388.7 0 368.2 0C347.7 0 327.3 0 306.8 0C286.3 0 265.7 0 245.2 0C224.7 0 204.3 0 184 0C163.7 0 143.3 0 122.8 0C102.3 0 81.7 0 61.2 0C40.7 0 20.3 0 10.2 0L0 0Z;M0 262L10.2 262C20.3 262 40.7 262 61.2 250C81.7 238 102.3 214 122.8 188.5C143.3 163 163.7 136 184 124C204.3 112 224.7 115 245.2 131.5C265.7 148 286.3 178 306.8 181C327.3 184 347.7 160 368.2 155.5C388.7 151 409.3 166 429.8 166C450.3 166 470.7 151 491 152.5C511.3 154 531.7 172 552.2 181C572.7 190 593.3 190 613.8 200.5C634.3 211 654.7 232 664.8 242.5L675 253L675 0L664.8 0C654.7 0 634.3 0 613.8 0C593.3 0 572.7 0 552.2 0C531.7 0 511.3 0 491 0C470.7 0 450.3 0 429.8 0C409.3 0 388.7 0 368.2 0C347.7 0 327.3 0 306.8 0C286.3 0 265.7 0 245.2 0C224.7 0 204.3 0 184 0C163.7 0 143.3 0 122.8 0C102.3 0 81.7 0 61.2 0C40.7 0 20.3 0 10.2 0L0 0Z;M0 136L10.2 125.5C20.3 115 40.7 94 61.2 85C81.7 76 102.3 79 122.8 88C143.3 97 163.7 112 184 115C204.3 118 224.7 109 245.2 100C265.7 91 286.3 82 306.8 82C327.3 82 347.7 91 368.2 98.5C388.7 106 409.3 112 429.8 107.5C450.3 103 470.7 88 491 77.5C511.3 67 531.7 61 552.2 62.5C572.7 64 593.3 73 613.8 86.5C634.3 100 654.7 118 664.8 127L675 136L675 0L664.8 0C654.7 0 634.3 0 613.8 0C593.3 0 572.7 0 552.2 0C531.7 0 511.3 0 491 0C470.7 0 450.3 0 429.8 0C409.3 0 388.7 0 368.2 0C347.7 0 327.3 0 306.8 0C286.3 0 265.7 0 245.2 0C224.7 0 204.3 0 184 0C163.7 0 143.3 0 122.8 0C102.3 0 81.7 0 61.2 0C40.7 0 20.3 0 10.2 0L0 0Z"/>
    </path>
    <path d="M0 208L10.2 205C20.3 202 40.7 196 61.2 191.5C81.7 187 102.3 184 122.8 185.5C143.3 187 163.7 193 184 194.5C204.3 196 224.7 193 245.2 191.5C265.7 190 286.3 190 306.8 184C327.3 178 347.7 166 368.2 172C388.7 178 409.3 202 429.8 205C450.3 208 470.7 190 491 181C511.3 172 531.7 172 552.2 176.5C572.7 181 593.3 190 613.8 193C634.3 196 654.7 193 664.8 191.5L675 190L675 134L664.8 125C654.7 116 634.3 98 613.8 84.5C593.3 71 572.7 62 552.2 60.5C531.7 59 511.3 65 491 75.5C470.7 86 450.3 101 429.8 105.5C409.3 110 388.7 104 368.2 96.5C347.7 89 327.3 80 306.8 80C286.3 80 265.7 89 245.2 98C224.7 107 204.3 116 184 113C163.7 110 143.3 95 122.8 86C102.3 77 81.7 74 61.2 83C40.7 92 20.3 113 10.2 123.5L0 134Z"
          fill="#65d5ff">
        <animate dur="30s" repeatCount="indefinite" attributeName="d"
                 values="M0 208L10.2 205C20.3 202 40.7 196 61.2 191.5C81.7 187 102.3 184 122.8 185.5C143.3 187 163.7 193 184 194.5C204.3 196 224.7 193 245.2 191.5C265.7 190 286.3 190 306.8 184C327.3 178 347.7 166 368.2 172C388.7 178 409.3 202 429.8 205C450.3 208 470.7 190 491 181C511.3 172 531.7 172 552.2 176.5C572.7 181 593.3 190 613.8 193C634.3 196 654.7 193 664.8 191.5L675 190L675 134L664.8 125C654.7 116 634.3 98 613.8 84.5C593.3 71 572.7 62 552.2 60.5C531.7 59 511.3 65 491 75.5C470.7 86 450.3 101 429.8 105.5C409.3 110 388.7 104 368.2 96.5C347.7 89 327.3 80 306.8 80C286.3 80 265.7 89 245.2 98C224.7 107 204.3 116 184 113C163.7 110 143.3 95 122.8 86C102.3 77 81.7 74 61.2 83C40.7 92 20.3 113 10.2 123.5L0 134Z;M0 370L10.2 367C20.3 364 40.7 358 61.2 341.5C81.7 325 102.3 298 122.8 274C143.3 250 163.7 229 184 221.5C204.3 214 224.7 220 245.2 241C265.7 262 286.3 298 306.8 304C327.3 310 347.7 286 368.2 269.5C388.7 253 409.3 244 429.8 236.5C450.3 229 470.7 223 491 226C511.3 229 531.7 241 552.2 250C572.7 259 593.3 265 613.8 275.5C634.3 286 654.7 301 664.8 308.5L675 316L675 251L664.8 240.5C654.7 230 634.3 209 613.8 198.5C593.3 188 572.7 188 552.2 179C531.7 170 511.3 152 491 150.5C470.7 149 450.3 164 429.8 164C409.3 164 388.7 149 368.2 153.5C347.7 158 327.3 182 306.8 179C286.3 176 265.7 146 245.2 129.5C224.7 113 204.3 110 184 122C163.7 134 143.3 161 122.8 186.5C102.3 212 81.7 236 61.2 248C40.7 260 20.3 260 10.2 260L0 260Z;M0 208L10.2 205C20.3 202 40.7 196 61.2 191.5C81.7 187 102.3 184 122.8 185.5C143.3 187 163.7 193 184 194.5C204.3 196 224.7 193 245.2 191.5C265.7 190 286.3 190 306.8 184C327.3 178 347.7 166 368.2 172C388.7 178 409.3 202 429.8 205C450.3 208 470.7 190 491 181C511.3 172 531.7 172 552.2 176.5C572.7 181 593.3 190 613.8 193C634.3 196 654.7 193 664.8 191.5L675 190L675 134L664.8 125C654.7 116 634.3 98 613.8 84.5C593.3 71 572.7 62 552.2 60.5C531.7 59 511.3 65 491 75.5C470.7 86 450.3 101 429.8 105.5C409.3 110 388.7 104 368.2 96.5C347.7 89 327.3 80 306.8 80C286.3 80 265.7 89 245.2 98C224.7 107 204.3 116 184 113C163.7 110 143.3 95 122.8 86C102.3 77 81.7 74 61.2 83C40.7 92 20.3 113 10.2 123.5L0 134Z"/>
    </path>
    <path d="M0 532L10.2 515.5C20.3 499 40.7 466 61.2 454C81.7 442 102.3 451 122.8 452.5C143.3 454 163.7 448 184 434.5C204.3 421 224.7 400 245.2 398.5C265.7 397 286.3 415 306.8 430C327.3 445 347.7 457 368.2 448C388.7 439 409.3 409 429.8 394C450.3 379 470.7 379 491 401.5C511.3 424 531.7 469 552.2 481C572.7 493 593.3 472 613.8 455.5C634.3 439 654.7 427 664.8 421L675 415L675 188L664.8 189.5C654.7 191 634.3 194 613.8 191C593.3 188 572.7 179 552.2 174.5C531.7 170 511.3 170 491 179C470.7 188 450.3 206 429.8 203C409.3 200 388.7 176 368.2 170C347.7 164 327.3 176 306.8 182C286.3 188 265.7 188 245.2 189.5C224.7 191 204.3 194 184 192.5C163.7 191 143.3 185 122.8 183.5C102.3 182 81.7 185 61.2 189.5C40.7 194 20.3 200 10.2 203L0 206Z"
          fill="#42c0ff">
        <animate dur="30s" repeatCount="indefinite" attributeName="d"
                 values="M0 532L10.2 515.5C20.3 499 40.7 466 61.2 454C81.7 442 102.3 451 122.8 452.5C143.3 454 163.7 448 184 434.5C204.3 421 224.7 400 245.2 398.5C265.7 397 286.3 415 306.8 430C327.3 445 347.7 457 368.2 448C388.7 439 409.3 409 429.8 394C450.3 379 470.7 379 491 401.5C511.3 424 531.7 469 552.2 481C572.7 493 593.3 472 613.8 455.5C634.3 439 654.7 427 664.8 421L675 415L675 188L664.8 189.5C654.7 191 634.3 194 613.8 191C593.3 188 572.7 179 552.2 174.5C531.7 170 511.3 170 491 179C470.7 188 450.3 206 429.8 203C409.3 200 388.7 176 368.2 170C347.7 164 327.3 176 306.8 182C286.3 188 265.7 188 245.2 189.5C224.7 191 204.3 194 184 192.5C163.7 191 143.3 185 122.8 183.5C102.3 182 81.7 185 61.2 189.5C40.7 194 20.3 200 10.2 203L0 206Z;M0 433L10.2 433C20.3 433 40.7 433 61.2 425.5C81.7 418 102.3 403 122.8 385C143.3 367 163.7 346 184 334C204.3 322 224.7 319 245.2 340C265.7 361 286.3 406 306.8 412C327.3 418 347.7 385 368.2 361C388.7 337 409.3 322 429.8 319C450.3 316 470.7 325 491 331C511.3 337 531.7 340 552.2 344.5C572.7 349 593.3 355 613.8 362.5C634.3 370 654.7 379 664.8 383.5L675 388L675 314L664.8 306.5C654.7 299 634.3 284 613.8 273.5C593.3 263 572.7 257 552.2 248C531.7 239 511.3 227 491 224C470.7 221 450.3 227 429.8 234.5C409.3 242 388.7 251 368.2 267.5C347.7 284 327.3 308 306.8 302C286.3 296 265.7 260 245.2 239C224.7 218 204.3 212 184 219.5C163.7 227 143.3 248 122.8 272C102.3 296 81.7 323 61.2 339.5C40.7 356 20.3 362 10.2 365L0 368Z;M0 532L10.2 515.5C20.3 499 40.7 466 61.2 454C81.7 442 102.3 451 122.8 452.5C143.3 454 163.7 448 184 434.5C204.3 421 224.7 400 245.2 398.5C265.7 397 286.3 415 306.8 430C327.3 445 347.7 457 368.2 448C388.7 439 409.3 409 429.8 394C450.3 379 470.7 379 491 401.5C511.3 424 531.7 469 552.2 481C572.7 493 593.3 472 613.8 455.5C634.3 439 654.7 427 664.8 421L675 415L675 188L664.8 189.5C654.7 191 634.3 194 613.8 191C593.3 188 572.7 179 552.2 174.5C531.7 170 511.3 170 491 179C470.7 188 450.3 206 429.8 203C409.3 200 388.7 176 368.2 170C347.7 164 327.3 176 306.8 182C286.3 188 265.7 188 245.2 189.5C224.7 191 204.3 194 184 192.5C163.7 191 143.3 185 122.8 183.5C102.3 182 81.7 185 61.2 189.5C40.7 194 20.3 200 10.2 203L0 206Z"/>
    </path>
    <path d="M0 739L10.2 716.5C20.3 694 40.7 649 61.2 634C81.7 619 102.3 634 122.8 644.5C143.3 655 163.7 661 184 649C204.3 637 224.7 607 245.2 596.5C265.7 586 286.3 595 306.8 604C327.3 613 347.7 622 368.2 635.5C388.7 649 409.3 667 429.8 664C450.3 661 470.7 637 491 640C511.3 643 531.7 673 552.2 668.5C572.7 664 593.3 625 613.8 619C634.3 613 654.7 640 664.8 653.5L675 667L675 413L664.8 419C654.7 425 634.3 437 613.8 453.5C593.3 470 572.7 491 552.2 479C531.7 467 511.3 422 491 399.5C470.7 377 450.3 377 429.8 392C409.3 407 388.7 437 368.2 446C347.7 455 327.3 443 306.8 428C286.3 413 265.7 395 245.2 396.5C224.7 398 204.3 419 184 432.5C163.7 446 143.3 452 122.8 450.5C102.3 449 81.7 440 61.2 452C40.7 464 20.3 497 10.2 513.5L0 530Z"
          fill="#35a9fc">
        <animate dur="30s" repeatCount="indefinite" attributeName="d"
                 values="M0 739L10.2 716.5C20.3 694 40.7 649 61.2 634C81.7 619 102.3 634 122.8 644.5C143.3 655 163.7 661 184 649C204.3 637 224.7 607 245.2 596.5C265.7 586 286.3 595 306.8 604C327.3 613 347.7 622 368.2 635.5C388.7 649 409.3 667 429.8 664C450.3 661 470.7 637 491 640C511.3 643 531.7 673 552.2 668.5C572.7 664 593.3 625 613.8 619C634.3 613 654.7 640 664.8 653.5L675 667L675 413L664.8 419C654.7 425 634.3 437 613.8 453.5C593.3 470 572.7 491 552.2 479C531.7 467 511.3 422 491 399.5C470.7 377 450.3 377 429.8 392C409.3 407 388.7 437 368.2 446C347.7 455 327.3 443 306.8 428C286.3 413 265.7 395 245.2 396.5C224.7 398 204.3 419 184 432.5C163.7 446 143.3 452 122.8 450.5C102.3 449 81.7 440 61.2 452C40.7 464 20.3 497 10.2 513.5L0 530Z;M0 550L10.2 545.5C20.3 541 40.7 532 61.2 518.5C81.7 505 102.3 487 122.8 475C143.3 463 163.7 457 184 451C204.3 445 224.7 439 245.2 454C265.7 469 286.3 505 306.8 509.5C327.3 514 347.7 487 368.2 464.5C388.7 442 409.3 424 429.8 421C450.3 418 470.7 430 491 439C511.3 448 531.7 454 552.2 463C572.7 472 593.3 484 613.8 497.5C634.3 511 654.7 526 664.8 533.5L675 541L675 386L664.8 381.5C654.7 377 634.3 368 613.8 360.5C593.3 353 572.7 347 552.2 342.5C531.7 338 511.3 335 491 329C470.7 323 450.3 314 429.8 317C409.3 320 388.7 335 368.2 359C347.7 383 327.3 416 306.8 410C286.3 404 265.7 359 245.2 338C224.7 317 204.3 320 184 332C163.7 344 143.3 365 122.8 383C102.3 401 81.7 416 61.2 423.5C40.7 431 20.3 431 10.2 431L0 431Z;M0 739L10.2 716.5C20.3 694 40.7 649 61.2 634C81.7 619 102.3 634 122.8 644.5C143.3 655 163.7 661 184 649C204.3 637 224.7 607 245.2 596.5C265.7 586 286.3 595 306.8 604C327.3 613 347.7 622 368.2 635.5C388.7 649 409.3 667 429.8 664C450.3 661 470.7 637 491 640C511.3 643 531.7 673 552.2 668.5C572.7 664 593.3 625 613.8 619C634.3 613 654.7 640 664.8 653.5L675 667L675 413L664.8 419C654.7 425 634.3 437 613.8 453.5C593.3 470 572.7 491 552.2 479C531.7 467 511.3 422 491 399.5C470.7 377 450.3 377 429.8 392C409.3 407 388.7 437 368.2 446C347.7 455 327.3 443 306.8 428C286.3 413 265.7 395 245.2 396.5C224.7 398 204.3 419 184 432.5C163.7 446 143.3 452 122.8 450.5C102.3 449 81.7 440 61.2 452C40.7 464 20.3 497 10.2 513.5L0 530Z"/>
    </path>
    <path d="M0 811L10.2 800.5C20.3 790 40.7 769 61.2 766C81.7 763 102.3 778 122.8 776.5C143.3 775 163.7 757 184 745C204.3 733 224.7 727 245.2 727C265.7 727 286.3 733 306.8 742C327.3 751 347.7 763 368.2 772C388.7 781 409.3 787 429.8 781C450.3 775 470.7 757 491 760C511.3 763 531.7 787 552.2 787C572.7 787 593.3 763 613.8 752.5C634.3 742 654.7 745 664.8 746.5L675 748L675 665L664.8 651.5C654.7 638 634.3 611 613.8 617C593.3 623 572.7 662 552.2 666.5C531.7 671 511.3 641 491 638C470.7 635 450.3 659 429.8 662C409.3 665 388.7 647 368.2 633.5C347.7 620 327.3 611 306.8 602C286.3 593 265.7 584 245.2 594.5C224.7 605 204.3 635 184 647C163.7 659 143.3 653 122.8 642.5C102.3 632 81.7 617 61.2 632C40.7 647 20.3 692 10.2 714.5L0 737Z"
          fill="#4891f4">
        <animate dur="30s" repeatCount="indefinite" attributeName="d"
                 values="M0 811L10.2 800.5C20.3 790 40.7 769 61.2 766C81.7 763 102.3 778 122.8 776.5C143.3 775 163.7 757 184 745C204.3 733 224.7 727 245.2 727C265.7 727 286.3 733 306.8 742C327.3 751 347.7 763 368.2 772C388.7 781 409.3 787 429.8 781C450.3 775 470.7 757 491 760C511.3 763 531.7 787 552.2 787C572.7 787 593.3 763 613.8 752.5C634.3 742 654.7 745 664.8 746.5L675 748L675 665L664.8 651.5C654.7 638 634.3 611 613.8 617C593.3 623 572.7 662 552.2 666.5C531.7 671 511.3 641 491 638C470.7 635 450.3 659 429.8 662C409.3 665 388.7 647 368.2 633.5C347.7 620 327.3 611 306.8 602C286.3 593 265.7 584 245.2 594.5C224.7 605 204.3 635 184 647C163.7 659 143.3 653 122.8 642.5C102.3 632 81.7 617 61.2 632C40.7 647 20.3 692 10.2 714.5L0 737Z;M0 658L10.2 653.5C20.3 649 40.7 640 61.2 623.5C81.7 607 102.3 583 122.8 581.5C143.3 580 163.7 601 184 610C204.3 619 224.7 616 245.2 620.5C265.7 625 286.3 637 306.8 631C327.3 625 347.7 601 368.2 586C388.7 571 409.3 565 429.8 574C450.3 583 470.7 607 491 611.5C511.3 616 531.7 601 552.2 611.5C572.7 622 593.3 658 613.8 674.5C634.3 691 654.7 688 664.8 686.5L675 685L675 539L664.8 531.5C654.7 524 634.3 509 613.8 495.5C593.3 482 572.7 470 552.2 461C531.7 452 511.3 446 491 437C470.7 428 450.3 416 429.8 419C409.3 422 388.7 440 368.2 462.5C347.7 485 327.3 512 306.8 507.5C286.3 503 265.7 467 245.2 452C224.7 437 204.3 443 184 449C163.7 455 143.3 461 122.8 473C102.3 485 81.7 503 61.2 516.5C40.7 530 20.3 539 10.2 543.5L0 548Z;M0 811L10.2 800.5C20.3 790 40.7 769 61.2 766C81.7 763 102.3 778 122.8 776.5C143.3 775 163.7 757 184 745C204.3 733 224.7 727 245.2 727C265.7 727 286.3 733 306.8 742C327.3 751 347.7 763 368.2 772C388.7 781 409.3 787 429.8 781C450.3 775 470.7 757 491 760C511.3 763 531.7 787 552.2 787C572.7 787 593.3 763 613.8 752.5C634.3 742 654.7 745 664.8 746.5L675 748L675 665L664.8 651.5C654.7 638 634.3 611 613.8 617C593.3 623 572.7 662 552.2 666.5C531.7 671 511.3 641 491 638C470.7 635 450.3 659 429.8 662C409.3 665 388.7 647 368.2 633.5C347.7 620 327.3 611 306.8 602C286.3 593 265.7 584 245.2 594.5C224.7 605 204.3 635 184 647C163.7 659 143.3 653 122.8 642.5C102.3 632 81.7 617 61.2 632C40.7 647 20.3 692 10.2 714.5L0 737Z"/>
    </path>
    <path d="M0 901L10.2 901C20.3 901 40.7 901 61.2 901C81.7 901 102.3 901 122.8 901C143.3 901 163.7 901 184 901C204.3 901 224.7 901 245.2 901C265.7 901 286.3 901 306.8 901C327.3 901 347.7 901 368.2 901C388.7 901 409.3 901 429.8 901C450.3 901 470.7 901 491 901C511.3 901 531.7 901 552.2 901C572.7 901 593.3 901 613.8 901C634.3 901 654.7 901 664.8 901L675 901L675 746L664.8 744.5C654.7 743 634.3 740 613.8 750.5C593.3 761 572.7 785 552.2 785C531.7 785 511.3 761 491 758C470.7 755 450.3 773 429.8 779C409.3 785 388.7 779 368.2 770C347.7 761 327.3 749 306.8 740C286.3 731 265.7 725 245.2 725C224.7 725 204.3 731 184 743C163.7 755 143.3 773 122.8 774.5C102.3 776 81.7 761 61.2 764C40.7 767 20.3 788 10.2 798.5L0 809Z"
          fill="#6575e4">
        <animate dur="30s" repeatCount="indefinite" attributeName="d"
                 values="M0 901L10.2 901C20.3 901 40.7 901 61.2 901C81.7 901 102.3 901 122.8 901C143.3 901 163.7 901 184 901C204.3 901 224.7 901 245.2 901C265.7 901 286.3 901 306.8 901C327.3 901 347.7 901 368.2 901C388.7 901 409.3 901 429.8 901C450.3 901 470.7 901 491 901C511.3 901 531.7 901 552.2 901C572.7 901 593.3 901 613.8 901C634.3 901 654.7 901 664.8 901L675 901L675 746L664.8 744.5C654.7 743 634.3 740 613.8 750.5C593.3 761 572.7 785 552.2 785C531.7 785 511.3 761 491 758C470.7 755 450.3 773 429.8 779C409.3 785 388.7 779 368.2 770C347.7 761 327.3 749 306.8 740C286.3 731 265.7 725 245.2 725C224.7 725 204.3 731 184 743C163.7 755 143.3 773 122.8 774.5C102.3 776 81.7 761 61.2 764C40.7 767 20.3 788 10.2 798.5L0 809Z;M0 901L10.2 901C20.3 901 40.7 901 61.2 901C81.7 901 102.3 901 122.8 901C143.3 901 163.7 901 184 901C204.3 901 224.7 901 245.2 901C265.7 901 286.3 901 306.8 901C327.3 901 347.7 901 368.2 901C388.7 901 409.3 901 429.8 901C450.3 901 470.7 901 491 901C511.3 901 531.7 901 552.2 901C572.7 901 593.3 901 613.8 901C634.3 901 654.7 901 664.8 901L675 901L675 683L664.8 684.5C654.7 686 634.3 689 613.8 672.5C593.3 656 572.7 620 552.2 609.5C531.7 599 511.3 614 491 609.5C470.7 605 450.3 581 429.8 572C409.3 563 388.7 569 368.2 584C347.7 599 327.3 623 306.8 629C286.3 635 265.7 623 245.2 618.5C224.7 614 204.3 617 184 608C163.7 599 143.3 578 122.8 579.5C102.3 581 81.7 605 61.2 621.5C40.7 638 20.3 647 10.2 651.5L0 656Z; M0 901L10.2 901C20.3 901 40.7 901 61.2 901C81.7 901 102.3 901 122.8 901C143.3 901 163.7 901 184 901C204.3 901 224.7 901 245.2 901C265.7 901 286.3 901 306.8 901C327.3 901 347.7 901 368.2 901C388.7 901 409.3 901 429.8 901C450.3 901 470.7 901 491 901C511.3 901 531.7 901 552.2 901C572.7 901 593.3 901 613.8 901C634.3 901 654.7 901 664.8 901L675 901L675 746L664.8 744.5C654.7 743 634.3 740 613.8 750.5C593.3 761 572.7 785 552.2 785C531.7 785 511.3 761 491 758C470.7 755 450.3 773 429.8 779C409.3 785 388.7 779 368.2 770C347.7 761 327.3 749 306.8 740C286.3 731 265.7 725 245.2 725C224.7 725 204.3 731 184 743C163.7 755 143.3 773 122.8 774.5C102.3 776 81.7 761 61.2 764C40.7 767 20.3 788 10.2 798.5L0 809Z"/>
    </path>
</svg>